<svg xmlns="http://www.w3.org/2000/svg" height="800" width="1200" version="1.0" viewBox="-44.336385 -20.8518 384.24867 125.1108"><path d="M54.2337 74.0696c-.6313.043-1.2444.0818-1.8778.0818-.7152 0-1.4079-.0613-2.123-.0818l2.0821-5.0205zm2.307 5.6949c.3678-.0205.94-.1206 1.51-.1206.5722 0 1.2874.1001 1.5939.1206-.9196-1.98-2.2682-5.0635-3.0426-6.8391-.7356-1.7124-1.9596-4.571-2.9383-7.3684-.2248.0613-.4312.1042-.654.1042-.2451 0-.4495-.0429-.6742-.1042-.4884 1.6735-1.6756 4.3278-3.7353 8.9438l-2.3682 5.2637c.284-.0409.5721-.1206.9174-.1206.327 0 .7173.0797.9808.1206.325-1.1627.9788-2.8587 1.6306-4.428.8174-.0429 1.6347-.0817 2.45-.0817.8787 0 1.7369.0388 2.6176.0817l.854 2.164zm4.8934-9.2873c0 3.49 0 6.8596-.2247 9.287.4515-.0183 1.0216-.1205 1.4691-.1205.47 0 .9604.1022 1.4304.1206-.1635-1.6531-.2044-3.8579-.2044-6.8984 0-2.0638 0-5.5927.2248-7.1048-.4904.0613-.9992.1247-1.4508.1247-.3044 0-1.0625-.0817-1.4487-.1247.2043 1.978.2043 3.4288.2043 4.7161m12.1406 2.3476c1.8595-.3473 3.5534-1.512 3.5534-3.7761 0-.8582-.327-1.696-.9379-2.2886-.8766-.8357-1.8799-.9992-3.206-.9992-.47 0-2.8382.1022-3.3674.1022-1.0422 0-1.5734-.0592-2.0414-.1022.141 2.634.141 2.92.141 5.5948 0 3.9375-.0204 4.387-.1818 8.4084.4495-.0593.94-.1206 1.4058-.1206.5129 0 .9604.0797 1.369.1206 0-.5293-.0817-3.1631-.0817-3.7557v-2.8975h.4904c1.1034 1.551 2.3662 3.347 3.4083 4.9613.3065.4679.756 1.224 1.0626 1.6919.613-.0818.8582-.1206 1.6551-.1206.7336 0 1.2444.0613 1.8145.1206-1.2853-1.6102-1.839-2.3254-3.4492-4.5915-.3065-.429-.756-1.1034-1.0625-1.5304zm-3.347-5.9604c.3065-.0225 1.0626-.1043 1.4508-.1043.6723 0 1.3486.1043 1.8962.513.7152.5292.8582 1.2648.8582 2.123 0 1.324-.754 2.8178-2.7953 2.8178-.5312 0-1.0216-.043-1.4099-.0634zm13.9798 8.125c-.9562-2.8383-2.2844-6.8187-2.9179-9.2278-.5108.0817-.9583.1226-1.4283.1226-.4904 0-1.1851-.0797-1.5938-.1226a297.2583 297.2583 0 012.1047 5.7152c.94 2.6543 1.5509 4.4934 2.2865 6.735l.5088 1.5529c.286-.0593.611-.1206.8377-.1206.2248 0 .4292.0388.7745.1206.327-1.0605.7152-2.3662 1.0033-3.204.7928-2.3274.897-2.6543 1.9391-5.5518l.611-1.694c.2247.6519.613 1.694.8357 2.3458.2248.6335 1.2669 3.7578 1.5121 4.4525.327.9175.4066 1.181 1.1627 3.6515.1839-.0205.57-.1206.8786-.1206.286 0 .5088.0613.8153.1206.7765-2.4275.8582-2.6727 2.0005-5.94 1.1238-3.1857 1.8165-5.0002 3.0405-8.0631-.3065.0817-.609.1226-.9175.1226-.3882 0-.7131-.0613-.9379-.1226-.7356 2.6543-1.1014 3.9416-1.694 5.6948-.9603 2.8566-1.083 3.1835-1.6735 4.7365-.6538-1.7553-1.2873-3.533-1.8798-5.327-.325-.9808-1.5734-5.0614-1.5918-5.1043-.284.0613-.4904.1226-.899.1226-.3638 0-.6335-.0797-.8971-.1226-.613 2.4908-2.777 8.4921-2.9813 9.0439l-.5108 1.326zm20.5991-.9198c-.6334.043-1.2444.0818-1.8799.0818-.7131 0-1.4078-.0613-2.121-.0818l2.0802-5.0205zm2.305 5.6949c.3698-.0205.942-.1206 1.512-.1206.5721 0 1.2873.1001 1.5918.1206-.9175-1.98-2.2661-5.0635-3.0426-6.8391-.7356-1.7124-1.9596-4.571-2.9383-7.3684-.2248.0613-.4291.1042-.6539.1042-.2432 0-.4495-.0429-.6743-.1042-.4884 1.6735-1.6735 4.3278-3.7353 8.9438l-2.3682 5.2637c.2881-.0409.5721-.1206.9195-.1206.327 0 .7131.0797.9808.1206.325-1.1627.9808-2.8587 1.6327-4.428.8153-.0429 1.6326-.0817 2.4479-.0817.8786 0 1.7348.0388 2.6134.0817l.8583 2.164zm8.5696-5.4703c0-.1819.1226-.4066.2656-.6539.8582-1.4691 1.653-3.0017 2.5726-4.4708.3044-.4904 1.796-2.8566 2.1046-3.4084-.2268.0818-.4515.1247-.8582.1247-.4516 0-.8602-.0634-1.1872-.1247-1.4691 3.2265-1.796 3.9192-3.5288 6.9005-1.7348-3.0406-2.5113-4.6528-3.5739-6.9005-.5905.1022-1.1851.1247-1.6735.1247-.4495 0-.9195-.043-1.6735-.1247 1.0605 1.7757 2.7974 4.5935 3.8374 6.3896l1.2036 2.0822c0 1.2669-.0613 3.9396-.1206 5.5314.3862-.0409.9583-.1206 1.365-.1206.47 0 .942.0797 1.412.1206-.0838-1.8983-.1451-2.9997-.1451-4.7161zm6.1188 2.4101c-.1001.9788-.1226 1.2444-.47 2.305.7356.3678 2.0638 1.042 3.817 1.042 3.7373 0 5.186-2.3866 5.186-4.4708 0-.5721-.143-1.7777-.9992-2.6952-.5925-.6539-1.2055-.8766-2.7769-1.4896-1.794-.6947-2.8382-1.1034-2.8382-2.593 0-1.2036.797-2.2048 2.4091-2.2048 1.2853 0 2.3703.613 2.6748 1.7757h.286c.184-.7745.2248-.938.6335-1.9392-1.0013-.4475-1.9003-.8357-3.39-.8357-3.6964 0-4.7569 2.2865-4.7569 4.0806 0 1.696.5946 2.738 2.5726 3.6147.5701.2452 1.5325.611 2.1026.8582.3883.1614 1.6756.7315 1.6756 2.3458 0 1.4712-1.0646 2.5542-2.6748 2.5542-1.2056 0-2.2272-.3065-3.1651-2.3479z" fill="#505967"/><path d="M8.39 38.9766c0-15.4314 8.2674-19.5978 14.516-19.5978 10.0431 0 14.3914 8.3308 14.3914 17.2112 0 5.0818-.613 9.8592-3.1243 13.719-2.5113 3.8559-6.6736 6.1853-11.2078 6.1853-11.3284 0-14.5753-10.7807-14.5753-17.5177M38.8892 70.52c1.837-1.2873 4.716-2.879 6.7982-3.7986l-13.8396-8.576c8.5105-2.9996 13.8396-10.5947 13.8396-20.9443 0-14.6959-11.2078-20.9445-22.6608-20.9445C10.6582 16.2565 0 23.1161 0 38.6722c0 3.304.7356 9.5527 5.8787 14.7591 5.3291 5.3904 11.637 6.1853 16.966 6.1853.6723 0 1.3446 0 2.021-.0593zM74.258 41.6724c-1.9003.1247-3.7352.2473-5.6376.2473-2.1414 0-4.2236-.186-6.365-.2473l6.2465-15.0656zm6.921 17.0866c1.1013-.0613 2.8178-.3678 4.5301-.3678 1.7185 0 3.8579.3065 4.7794.3678-2.7565-5.94-6.7982-15.1883-9.1277-20.5174-2.2047-5.1431-5.8787-13.719-8.817-22.109-.6744.1859-1.2874.3085-1.9596.3085-.7356 0-1.3486-.1226-2.0209-.3086-1.4712 5.0246-5.0226 12.9855-11.2078 26.8252L50.2486 58.759c.8582-.1206 1.7164-.3678 2.7565-.3678.9787 0 2.1455.2472 2.9404.3678.9787-3.4921 2.9424-8.574 4.9-13.29 2.4479-.1206 4.8979-.2432 7.3478-.2432 2.634 0 5.2065.1226 7.8425.2432l2.5684 6.4938zm27.1761-31.0492c0-2.3274.0593-4.6548.1206-6.8616 4.2256 0 8.576.0633 12.1886.429-.184-.9787-.3065-1.5284-.3065-2.2027 0-.4904.1226-1.2893.3065-2.3273-5.8787.3044-11.2691.3657-16.353.3657-4.716 0-11.5143-.0613-16.353-.3657.186.7356.3065 1.5304.3065 2.266s-.1205 1.5305-.3065 2.264c3.1264-.3044 9.0051-.429 9.5548-.429h3.063c.0613 2.3907.1226 4.5342.1226 6.8003l.0613 17.0845c0 4.6568-.3658 9.3728-.613 14.0256 2.2047-.2432 3.1242-.3658 4.1643-.3658.7356 0 2.6952.184 4.473.3658-.186-1.7124-.4292-3.7353-.4292-8.388zm34.0881 13.9626c-1.8983.1247-3.7353.2473-5.6335.2473-2.1456 0-4.2257-.186-6.3712-.2473l6.2486-15.0656zm6.9209 17.0866c1.1013-.0613 2.8177-.3678 4.5321-.3678s3.8579.3065 4.7774.3678c-2.7565-5.94-6.7983-15.1883-9.1256-20.5174-2.2048-5.1431-5.8808-13.719-8.8192-22.109-.6743.1859-1.2873.3085-1.9596.3085-.7356 0-1.3486-.1226-2.0229-.3086-1.4671 5.0246-5.0205 12.9855-11.2078 26.8252l-7.1027 15.8013c.8562-.1206 1.7164-.3678 2.7565-.3678.9788 0 2.1414.2472 2.9404.3678.9808-3.4921 2.9383-8.574 4.898-13.29 2.4479-.1206 4.8978-.2432 7.3499-.2432 2.6338 0 5.2064.1226 7.8383.2432l2.5726 6.4938zm33.9749-20.82c5.5722-1.0421 10.656-4.5322 10.656-11.3324 0-2.5726-.9808-5.084-2.8198-6.8575-2.6318-2.5113-5.6335-3.0017-9.614-3.0017-1.4099 0-8.5126.3044-10.1064.3044-3.1243 0-4.716-.1839-6.122-.3044.4271 7.8996.4271 8.7557.4271 16.778 0 11.8228-.0613 13.1674-.5496 25.2334 1.3466-.1819 2.8157-.3678 4.2236-.3678 1.5305 0 2.879.2472 4.103.3678 0-1.5938-.2431-9.4914-.2431-11.2691V38.793h1.4712c3.3062 4.6548 7.1048 10.0452 10.227 14.8838.9175 1.41 2.264 3.676 3.1815 5.0819 1.839-.2432 2.5746-.3678 4.9613-.3678 2.2048 0 3.7373.186 5.4517.3678-3.8579-4.8367-5.509-6.9801-10.3496-13.7784-.9195-1.2873-2.2661-3.3082-3.1856-4.5934zm-10.0452-17.8855c.9175-.0592 3.1835-.3044 4.3483-.3044 2.0208 0 4.0397.3044 5.6968 1.5284 2.1415 1.5938 2.5706 3.7965 2.5706 6.3712 0 3.9804-2.2661 8.4513-8.39 8.4513-1.5939 0-3.063-.1247-4.2257-.1819z" fill="#5c0632"/><path d="M274.8893 38.0553c0 .3943-5.5436.7642-13.4576 1.0748-1.3976-.7928-2.4581-1.5897-3.2346-2.2763 9.5976.3392 16.6922.758 16.6922 1.2015m-5.685-13.3609c0 .329-4.6466.6375-11.2896.9031.9522-.5557 1.933-1.1156 2.9629-1.6775 5.0185.2308 8.3267.4985 8.3267.7744M219.707 53.4383c-3.0752.0368-5.7725.051-7.8792.051-3.0323 0-5.4884-.9338-5.4884-2.0923 0-1.1525 2.456-2.0863 5.4884-2.0863 2.685 0 6.3222.0286 10.4947.0817-1.6142 2.3295-2.3805 3.7292-2.452 3.817-.047.0675-.1063.1471-.1635.2289m1.6566 2.7984c1.0135 1.224 1.9861 2.2538 3.2877 3.3797 0 0 .4904.7008 1.98.1 1.5162-.617 2.8015-1.4568 4.2502-3.4 4.2298.0715 8.715.1655 13.1306.2656.3637.5292 1.1014 1.6245 2.0107 2.9751-12.3092.3188-25.6687.5088-32.5119.5088-2.8504 0-5.1635-.8848-5.1635-1.9677 0-1.0892 2.313-1.9678 5.1635-1.9678 2.0843 0 4.7692.0143 7.8424.049a.141.141 0 00.0103.0573m-4.7616 10.2652c-2.5298 0-4.5792-.7786-4.5792-1.739 0-.9624 2.0494-1.743 4.5791-1.743 6.692 0 20.4111.2044 32.1604.5375.566.8112 1.132 1.6183 1.6694 2.36-12.0966.3556-26.821.5845-33.8298.5845m39.0224 5.5821c-9.8674.4331-26.8333.7233-33.883.7233-1.984 0-3.5962-.6192-3.5962-1.369 0-.7561 1.6122-1.3712 3.5963-1.3712 6.743 0 22.579.2657 32.5731.6641.4516.4843.893.94 1.3098 1.3527m-25.7428 3.7009c5.8215 0 23.5435.4394 23.5435.9706 0 .5395-17.724.9747-23.5435.9747-1.134 0-2.0515-.4352-2.0515-.9747 0-.5312.9174-.9706 2.0515-.9706m.0644-35.8335c-7.3275.1247-13.8928.1941-18.1185.1941-3.0303 0-5.4884-.9338-5.4884-2.0903 0-1.1545 2.4581-2.0924 5.4884-2.0924 4.9082 0 12.9733.094 21.7168.2595a109.4516 109.4516 0 00-3.5983 3.7291m35.9404-9.3457c4.293.233 6.9944.4884 6.9944.754 0 .2922-3.2694.5721-8.3288.8214 1.081-.8132 1.318-1.5223 1.3344-1.5754M213.512 33.324c-2.8526 0-5.1656-.8786-5.1656-1.9656 0-1.085 2.313-1.9678 5.1656-1.9678 5.85 0 16.4612.143 27.105.378a123.71 123.71 0 00-3.7127 3.2592c-9.3422.188-18.2226.2963-23.3923.2963m31.8107-7.3334c-10.8829.2758-22.673.4454-28.7214.4454-2.5297 0-4.5771-.7785-4.5771-1.7409 0-.9624 2.0474-1.745 4.5771-1.745 6.6757 0 20.362.2084 32.095.5394-.5844.425-1.1729.85-1.7695 1.2955-.5436.4046-1.079.803-1.604 1.2056m-23.5822-6.6041c-1.9841 0-3.5964-.611-3.5964-1.369 0-.7561 1.6123-1.3712 3.5964-1.3712 7.4848 0 26.1529.331 35.634.803-.6048.3965-1.2096.8072-1.8206 1.22-9.8817.427-26.7782.7172-33.8134.7172m-10.4786 27.468c-3.0854 0-5.5906-.9502-5.5906-2.1292 0-1.1708 2.5052-2.125 5.5906-2.125 3.868 0 9.657.0571 16.2038.1573a95.6503 95.6503 0 00-3.2142 3.9886c-5.2126.0695-9.7693.1083-12.9896.1083m16.5688-34.1562c0-.5374.9174-.9726 2.0515-.9726 5.8195 0 23.5436.4352 23.5436.9726 0 .5334-17.722.9706-23.5436.9706-1.134 0-2.0515-.4372-2.0515-.9706" fill="#747f8a"/><path d="M275.47 43.1518a35.0261 35.0261 0 01-.0184 3.1447c-10.3108.4087-20.0882 1.0299-20.0882 1.7287 0 .6866 9.5588 1.3016 19.751 1.7083a38.1711 38.1711 0 01-.6926 3.4635c-10.0472.4107-19.371 1.0155-19.371 1.696 0 .6559 8.7046 1.2464 18.3432 1.6571-.4414 1.2301-.942 2.4255-1.504 3.5697-8.2776.3985-15.1188.9298-15.1188 1.51 0 .5416 5.9769 1.0422 13.5107 1.4284-.423.6886-.8643 1.363-1.3261 2.0004-.4904.6948-1.0237 1.3834-1.5877 2.0597-4.71.3576-7.9425.7643-7.9425 1.1995 0 .374 2.315.7233 5.8828 1.036-1.9473 1.9269-4.2481 3.727-6.9597 5.2984 0 0-3.1937-2.7504-5.8297-5.9625-2.3498-2.8648-7.3356-10.417-8.5085-12.1069-1.175-1.6899-1.9473-2.1843-3.3205-1.694-1.841.6519-3.9804.9788-4.6384.9788-.658 0-1.0196-.2554.0838-.6927 1.0993-.4434 5.4455-2.495 7.585-6.7349 2.403-4.7753.29-11.3692.29-11.3692-.807 3.5248-2.642 4.8407-2.642 4.8407.5926-3.2735-.0531-6.2404-1.6694-8.3226l-.9011 4.144s-.564-.0287-1.9596 1.1442c-1.3936 1.175-1.7777 2.8873-1.7777 2.8873 1.0973.4413 2.4173-.66 2.4173-.66-1.6858 6.3078-4.103 11.4428-5.8665 14.1584-1.7614 2.7156-3.2142 3.7393-4.9797 4.4566-1.4896.5966-1.98-.1043-1.98-.1043-1.3016-1.1238-2.2742-2.1537-3.2877-3.3776 0 0-.0818-.143.192-.139.7254.0102 2.0168-1.23 2.2988-1.745.3229-.5905.2881-1.0421.1267-1.0728-.1594-.0265-.4352.4414-1.835 1.3241-1.3915.8807-2.031.2698-2.4949-.2207-.3596-.3902-.0061-.8725.2187-1.1749.2125-.2697 7.5747-13.999 27.056-28.423C272.4562 5.883 288.76.7786 289.6939.4108c.6171-.2431 1.6245-.564 1.8533-.329.2534.2657.378.4782.3433.7867-.0327.3065-.1961.4639-1.3772.985-9.8 4.3176-21.2407 11.5143-27.7406 15.7031-7.9936 3.8947-15.6256 9.4567-15.9035 9.5895-.615.3821-.1614.938.2105.705 13.4984-8.9785 29.3242-15.0943 46.8133-20.1046.8357-.237 1.2934-.237 1.4324-.0531.1573.2043.2248.4372.2493.6947.0225.3208-.2432.4904-.9604.7703-18.7887 6.9801-32.6365 13.4637-41.5435 19.4569 0 0-.9215.5558-.9338 1.1994-.004.2452.4945.2738.4945.2738 4.4586.0797 10.419.3413 13.2553.5068 0 0-.4046 1.4365-3.1202 2.593-2.0965.895-4.0377.752-5.9585.7683-.427-.0082-.7887.423-.4475.8827.1717.2289 4.2584 6.8085 19.1095 8.3124M139.319 77.559h-2.5175s-.3392-1.5488.5721-2.1414c.9155-.6007 1.9453-1.0625 1.9453-1.0625zm11.9454-5.799s-1.5305.8787-2.499 1.741c-.9625.8541.1982 1.179.1982 1.179v2.879h-7.305V67.4834s-2.6625 2.448-2.9118 2.7728c-.2575.3474.6334.662.6334.662l-.1512.9543s-1.0605.5497-2.3478 1.4202c-1.2792.8602-2.2273 1.9575-2.2273 2.7176 0 .7622-.3228 3.7537-.3228 3.7537h16.9333zm-15.123-3.6841c.8338 0 1.4223-.329 1.4223-.9931 0-.6661-.3903-1.13-1.4222-1.13-.9175 0-1.1627.4005-1.1627 1.13 0 .7356.3188.993 1.1627.993m3.114 0c.842 0 1.412-.329 1.412-.993 0-.6661-.3862-1.13-1.412-1.13-.9215 0-1.1626.4005-1.1626 1.13 0 .7356.3167.993 1.1627.993m4.718 12.5544c-.9113 0-1.1626.3903-1.1626 1.1239 0 .7274.3229.993 1.1627.993.8337 0 1.4242-.331 1.4242-.993 0-.6682-.3842-1.1239-1.4242-1.1239m3.2367 0c-.9114 0-1.1607.3903-1.1607 1.1239 0 .7274.331.993 1.1607.993.8459 0 1.4262-.331 1.4262-.993 0-.6682-.382-1.1239-1.4262-1.1239m36.4882-12.7525c.8398 0 1.4283-.3208 1.4283-.985 0-.66-.3883-1.132-1.4283-1.132-.9093 0-1.1566.4005-1.1566 1.132 0 .7316.325.985 1.1566.985m3.2346 0c.8337 0 1.418-.3208 1.418-.985 0-.66-.3881-1.132-1.418-1.132-.9154 0-1.1586.4005-1.1586 1.132 0 .7316.3127.985 1.1586.985m8.9295.2738c-.4557.3943-.3229.8664.2554.801v10.8257h2.3989v-13.476s-2.2068 1.457-2.6543 1.8493m-9.6406 6.0708h-1.553c0-.8521 1.553-1.3241 1.553-1.3241zm-10.2229 1.788c0 .3922-.0184 1.0318-.0368 1.5488h-13.5536v-2.3826c.3535-.9174.9502-1.0237 1.8738-1.0237h9.9082c2.1394 0 1.8084 1.1259 1.8084 1.8574m15.8503-7.07v8.6189h-3.2264v-7.826s-.66.2533-1.5653.6538c-.897.4066-4.1418 1.7246-4.1418 3.5064v2.0597h3.3061v1.606h-7.8424c.0061-.378.0143-.9337.0143-1.749 0-2.5685-2.1884-3.9662-4.1357-3.9662h-9.0664c-1.5877 0-2.354.3842-2.783.8235v-6.6348s-1.4161.9951-2.4562 1.7859c-1.038.7908 0 1.322 0 1.322v8.4187h-2.971l-.0634-7.2253s-2.0678 1.51-2.6604 1.9698c-.5783.4577-.2575.8664.3903.8664 0 0-.1185 5.3352-.1185 6.5939 0 1.2668-1.0483 2.7135-3.249 2.0556 0 0-.6988.1348-.1185.662.5783.5252 1.2771.9257 2.0597.9257.7785 0 3.631-.5374 3.631-3.6433h37.3873V66.294s-2.2006 1.4528-2.6543 1.8472c-.4556.3943-.3228.8684.2636.7989" fill="#5c0632"/></svg>